<mxfile host="app.diagrams.net" modified="2023-08-30T08:19:38.597Z" agent="Mozilla/5.0 (Windows NT 10.0; Win64; x64) AppleWebKit/537.36 (KHTML, like Gecko) Chrome/116.0.0.0 Safari/537.36" etag="lY8ld89uPLqU9A112wH2" version="21.6.9" type="github">
  <diagram name="Page-1" id="xnDQvVN1IEBcobiF2Vbc">
    <mxGraphModel dx="2303" dy="1140" grid="0" gridSize="10" guides="1" tooltips="1" connect="1" arrows="1" fold="1" page="0" pageScale="1" pageWidth="850" pageHeight="1100" math="0" shadow="0">
      <root>
        <mxCell id="0" />
        <mxCell id="1" parent="0" />
        <mxCell id="uW9IMe0hNeK73aVWFQNA-1" value="&lt;b&gt;&lt;font face=&quot;Times New Roman&quot; style=&quot;font-size: 24px;&quot;&gt;COMPANY&lt;/font&gt;&lt;/b&gt;" style="whiteSpace=wrap;html=1;" parent="1" vertex="1">
          <mxGeometry x="40" y="160" width="140" height="40" as="geometry" />
        </mxCell>
        <mxCell id="uW9IMe0hNeK73aVWFQNA-3" value="&lt;b&gt;&lt;font face=&quot;Times New Roman&quot; style=&quot;font-size: 24px;&quot;&gt;ADMIN&lt;/font&gt;&lt;/b&gt;" style="whiteSpace=wrap;html=1;" parent="1" vertex="1">
          <mxGeometry x="370" y="154" width="100" height="53" as="geometry" />
        </mxCell>
        <mxCell id="uW9IMe0hNeK73aVWFQNA-4" value="&lt;b&gt;&lt;font face=&quot;Times New Roman&quot; style=&quot;font-size: 24px;&quot;&gt;STUDENT&lt;/font&gt;&lt;/b&gt;" style="whiteSpace=wrap;html=1;" parent="1" vertex="1">
          <mxGeometry x="651" y="160" width="140" height="40" as="geometry" />
        </mxCell>
        <mxCell id="uW9IMe0hNeK73aVWFQNA-5" value="&lt;b&gt;&lt;font style=&quot;font-size: 14px;&quot;&gt;Manage&lt;/font&gt;&lt;/b&gt;" style="rhombus;whiteSpace=wrap;html=1;" parent="1" vertex="1">
          <mxGeometry x="230" y="150" width="70" height="60" as="geometry" />
        </mxCell>
        <mxCell id="uW9IMe0hNeK73aVWFQNA-6" value="&lt;b&gt;&lt;font style=&quot;font-size: 14px;&quot;&gt;Manage&lt;/font&gt;&lt;/b&gt;" style="rhombus;whiteSpace=wrap;html=1;" parent="1" vertex="1">
          <mxGeometry x="530" y="150" width="70" height="60" as="geometry" />
        </mxCell>
        <mxCell id="uW9IMe0hNeK73aVWFQNA-7" value="&lt;b&gt;&lt;font face=&quot;Times New Roman&quot; style=&quot;font-size: 24px;&quot;&gt;JOBS&lt;/font&gt;&lt;/b&gt;" style="whiteSpace=wrap;html=1;" parent="1" vertex="1">
          <mxGeometry x="367" y="482" width="100" height="40" as="geometry" />
        </mxCell>
        <mxCell id="uW9IMe0hNeK73aVWFQNA-8" value="&lt;b&gt;&lt;font style=&quot;font-size: 14px;&quot;&gt;Apply&lt;/font&gt;&lt;/b&gt;" style="rhombus;whiteSpace=wrap;html=1;" parent="1" vertex="1">
          <mxGeometry x="660" y="450.5" width="117" height="103" as="geometry" />
        </mxCell>
        <mxCell id="uW9IMe0hNeK73aVWFQNA-9" value="&lt;b&gt;&lt;font style=&quot;font-size: 14px;&quot;&gt;Post&lt;/font&gt;&lt;/b&gt;" style="rhombus;whiteSpace=wrap;html=1;" parent="1" vertex="1">
          <mxGeometry x="-6" y="437" width="117" height="131" as="geometry" />
        </mxCell>
        <mxCell id="uW9IMe0hNeK73aVWFQNA-13" value="" style="endArrow=none;html=1;rounded=0;" parent="1" target="uW9IMe0hNeK73aVWFQNA-3" edge="1">
          <mxGeometry width="50" height="50" relative="1" as="geometry">
            <mxPoint x="300" y="180" as="sourcePoint" />
            <mxPoint x="350" y="130" as="targetPoint" />
          </mxGeometry>
        </mxCell>
        <mxCell id="uW9IMe0hNeK73aVWFQNA-14" value="" style="endArrow=none;html=1;rounded=0;" parent="1" target="uW9IMe0hNeK73aVWFQNA-5" edge="1">
          <mxGeometry width="50" height="50" relative="1" as="geometry">
            <mxPoint x="180" y="180" as="sourcePoint" />
            <mxPoint x="230" y="130" as="targetPoint" />
          </mxGeometry>
        </mxCell>
        <mxCell id="uW9IMe0hNeK73aVWFQNA-15" value="" style="endArrow=none;html=1;rounded=0;entryX=0;entryY=0.5;entryDx=0;entryDy=0;" parent="1" target="uW9IMe0hNeK73aVWFQNA-4" edge="1">
          <mxGeometry width="50" height="50" relative="1" as="geometry">
            <mxPoint x="600" y="180" as="sourcePoint" />
            <mxPoint x="650" y="130" as="targetPoint" />
          </mxGeometry>
        </mxCell>
        <mxCell id="uW9IMe0hNeK73aVWFQNA-16" value="" style="endArrow=none;html=1;rounded=0;entryX=0;entryY=0.5;entryDx=0;entryDy=0;" parent="1" target="uW9IMe0hNeK73aVWFQNA-6" edge="1">
          <mxGeometry width="50" height="50" relative="1" as="geometry">
            <mxPoint x="470" y="180" as="sourcePoint" />
            <mxPoint x="520" y="130" as="targetPoint" />
          </mxGeometry>
        </mxCell>
        <mxCell id="uW9IMe0hNeK73aVWFQNA-17" value="" style="endArrow=none;html=1;rounded=0;exitX=0.5;exitY=0;exitDx=0;exitDy=0;" parent="1" source="uW9IMe0hNeK73aVWFQNA-9" edge="1">
          <mxGeometry width="50" height="50" relative="1" as="geometry">
            <mxPoint x="130" y="250" as="sourcePoint" />
            <mxPoint x="53" y="199" as="targetPoint" />
          </mxGeometry>
        </mxCell>
        <mxCell id="uW9IMe0hNeK73aVWFQNA-18" value="" style="endArrow=none;html=1;rounded=0;" parent="1" edge="1">
          <mxGeometry width="50" height="50" relative="1" as="geometry">
            <mxPoint x="108" y="501" as="sourcePoint" />
            <mxPoint x="366" y="501" as="targetPoint" />
          </mxGeometry>
        </mxCell>
        <mxCell id="uW9IMe0hNeK73aVWFQNA-19" value="" style="endArrow=none;html=1;rounded=0;entryX=0;entryY=0.5;entryDx=0;entryDy=0;" parent="1" source="uW9IMe0hNeK73aVWFQNA-7" target="uW9IMe0hNeK73aVWFQNA-8" edge="1">
          <mxGeometry width="50" height="50" relative="1" as="geometry">
            <mxPoint x="470" y="429" as="sourcePoint" />
            <mxPoint x="520" y="340" as="targetPoint" />
          </mxGeometry>
        </mxCell>
        <mxCell id="uW9IMe0hNeK73aVWFQNA-20" value="" style="endArrow=none;html=1;rounded=0;entryX=0.75;entryY=1;entryDx=0;entryDy=0;exitX=0.5;exitY=0;exitDx=0;exitDy=0;" parent="1" source="uW9IMe0hNeK73aVWFQNA-8" edge="1">
          <mxGeometry width="50" height="50" relative="1" as="geometry">
            <mxPoint x="710.3162904031992" y="474.46744835055006" as="sourcePoint" />
            <mxPoint x="717" y="204" as="targetPoint" />
          </mxGeometry>
        </mxCell>
        <mxCell id="uW9IMe0hNeK73aVWFQNA-24" value="" style="endArrow=none;html=1;rounded=0;exitX=0.5;exitY=0;exitDx=0;exitDy=0;entryX=0.5;entryY=1;entryDx=0;entryDy=0;" parent="1" source="uW9IMe0hNeK73aVWFQNA-22" target="uW9IMe0hNeK73aVWFQNA-3" edge="1">
          <mxGeometry width="50" height="50" relative="1" as="geometry">
            <mxPoint x="420" y="260" as="sourcePoint" />
            <mxPoint x="419.5" y="200" as="targetPoint" />
          </mxGeometry>
        </mxCell>
        <mxCell id="uW9IMe0hNeK73aVWFQNA-25" value="&lt;b&gt;ID&lt;/b&gt;" style="ellipse;whiteSpace=wrap;html=1;" parent="1" vertex="1">
          <mxGeometry x="-136" y="69" width="44" height="44" as="geometry" />
        </mxCell>
        <mxCell id="uW9IMe0hNeK73aVWFQNA-26" value="&lt;b&gt;Name&lt;/b&gt;" style="ellipse;whiteSpace=wrap;html=1;" parent="1" vertex="1">
          <mxGeometry x="-84" y="24" width="63" height="53.5" as="geometry" />
        </mxCell>
        <mxCell id="uW9IMe0hNeK73aVWFQNA-27" value="&lt;b&gt;Email&lt;/b&gt;" style="ellipse;whiteSpace=wrap;html=1;" parent="1" vertex="1">
          <mxGeometry x="-16" y="-6" width="53" height="44" as="geometry" />
        </mxCell>
        <mxCell id="uW9IMe0hNeK73aVWFQNA-28" value="&lt;b&gt;Passwod&lt;/b&gt;" style="ellipse;whiteSpace=wrap;html=1;" parent="1" vertex="1">
          <mxGeometry x="54" y="-9" width="60" height="40" as="geometry" />
        </mxCell>
        <mxCell id="uW9IMe0hNeK73aVWFQNA-29" value="" style="endArrow=none;html=1;rounded=0;entryX=0;entryY=0;entryDx=0;entryDy=0;exitX=0.5;exitY=1;exitDx=0;exitDy=0;" parent="1" source="uW9IMe0hNeK73aVWFQNA-25" target="uW9IMe0hNeK73aVWFQNA-1" edge="1">
          <mxGeometry width="50" height="50" relative="1" as="geometry">
            <mxPoint x="10" y="100" as="sourcePoint" />
            <mxPoint x="60" y="100" as="targetPoint" />
          </mxGeometry>
        </mxCell>
        <mxCell id="uW9IMe0hNeK73aVWFQNA-30" value="" style="endArrow=none;html=1;rounded=0;entryX=0.25;entryY=0;entryDx=0;entryDy=0;" parent="1" source="uW9IMe0hNeK73aVWFQNA-26" target="uW9IMe0hNeK73aVWFQNA-1" edge="1">
          <mxGeometry width="50" height="50" relative="1" as="geometry">
            <mxPoint x="60" y="70" as="sourcePoint" />
            <mxPoint x="110" y="70" as="targetPoint" />
          </mxGeometry>
        </mxCell>
        <mxCell id="uW9IMe0hNeK73aVWFQNA-31" value="" style="endArrow=none;html=1;rounded=0;entryX=0.386;entryY=0;entryDx=0;entryDy=0;entryPerimeter=0;exitX=1;exitY=1;exitDx=0;exitDy=0;" parent="1" source="uW9IMe0hNeK73aVWFQNA-27" target="uW9IMe0hNeK73aVWFQNA-1" edge="1">
          <mxGeometry width="50" height="50" relative="1" as="geometry">
            <mxPoint x="74" y="39" as="sourcePoint" />
            <mxPoint x="86" y="151" as="targetPoint" />
          </mxGeometry>
        </mxCell>
        <mxCell id="uW9IMe0hNeK73aVWFQNA-32" value="" style="endArrow=none;html=1;rounded=0;entryX=0.75;entryY=0;entryDx=0;entryDy=0;exitX=0.5;exitY=1;exitDx=0;exitDy=0;" parent="1" source="uW9IMe0hNeK73aVWFQNA-28" target="uW9IMe0hNeK73aVWFQNA-1" edge="1">
          <mxGeometry width="50" height="50" relative="1" as="geometry">
            <mxPoint x="180" y="60" as="sourcePoint" />
            <mxPoint x="230" y="60" as="targetPoint" />
          </mxGeometry>
        </mxCell>
        <mxCell id="uW9IMe0hNeK73aVWFQNA-33" value="" style="endArrow=none;html=1;rounded=0;exitX=0.858;exitY=0.036;exitDx=0;exitDy=0;exitPerimeter=0;" parent="1" source="uW9IMe0hNeK73aVWFQNA-1" target="uW9IMe0hNeK73aVWFQNA-34" edge="1">
          <mxGeometry width="50" height="50" relative="1" as="geometry">
            <mxPoint x="160" y="146" as="sourcePoint" />
            <mxPoint x="230" y="159" as="targetPoint" />
          </mxGeometry>
        </mxCell>
        <mxCell id="uW9IMe0hNeK73aVWFQNA-34" value="&lt;b&gt;Phone&lt;/b&gt;" style="ellipse;whiteSpace=wrap;html=1;" parent="1" vertex="1">
          <mxGeometry x="126" y="-9" width="60" height="40" as="geometry" />
        </mxCell>
        <mxCell id="uW9IMe0hNeK73aVWFQNA-35" value="&lt;b&gt;ID&lt;/b&gt;" style="ellipse;whiteSpace=wrap;html=1;" parent="1" vertex="1">
          <mxGeometry x="273" y="45" width="49" height="50" as="geometry" />
        </mxCell>
        <mxCell id="uW9IMe0hNeK73aVWFQNA-36" value="&lt;b&gt;Name&lt;/b&gt;" style="ellipse;whiteSpace=wrap;html=1;" parent="1" vertex="1">
          <mxGeometry x="317" y="15" width="57" height="40" as="geometry" />
        </mxCell>
        <mxCell id="uW9IMe0hNeK73aVWFQNA-37" value="&lt;b&gt;Email&lt;/b&gt;" style="ellipse;whiteSpace=wrap;html=1;" parent="1" vertex="1">
          <mxGeometry x="381" y="1" width="61" height="44" as="geometry" />
        </mxCell>
        <mxCell id="uW9IMe0hNeK73aVWFQNA-38" value="&lt;b&gt;Passwod&lt;/b&gt;" style="ellipse;whiteSpace=wrap;html=1;" parent="1" vertex="1">
          <mxGeometry x="457" y="-4" width="60" height="40" as="geometry" />
        </mxCell>
        <mxCell id="uW9IMe0hNeK73aVWFQNA-40" value="" style="endArrow=none;html=1;rounded=0;exitX=0;exitY=0;exitDx=0;exitDy=0;entryX=1;entryY=1;entryDx=0;entryDy=0;" parent="1" source="uW9IMe0hNeK73aVWFQNA-3" target="uW9IMe0hNeK73aVWFQNA-35" edge="1">
          <mxGeometry width="50" height="50" relative="1" as="geometry">
            <mxPoint x="270" y="160" as="sourcePoint" />
            <mxPoint x="326" y="89" as="targetPoint" />
          </mxGeometry>
        </mxCell>
        <mxCell id="uW9IMe0hNeK73aVWFQNA-41" value="" style="endArrow=none;html=1;rounded=0;exitX=0.25;exitY=0;exitDx=0;exitDy=0;entryX=0.5;entryY=1;entryDx=0;entryDy=0;" parent="1" source="uW9IMe0hNeK73aVWFQNA-3" target="uW9IMe0hNeK73aVWFQNA-36" edge="1">
          <mxGeometry width="50" height="50" relative="1" as="geometry">
            <mxPoint x="320" y="131" as="sourcePoint" />
            <mxPoint x="376" y="60" as="targetPoint" />
          </mxGeometry>
        </mxCell>
        <mxCell id="uW9IMe0hNeK73aVWFQNA-42" value="" style="endArrow=none;html=1;rounded=0;exitX=0.5;exitY=0;exitDx=0;exitDy=0;entryX=0.5;entryY=1;entryDx=0;entryDy=0;" parent="1" source="uW9IMe0hNeK73aVWFQNA-3" target="uW9IMe0hNeK73aVWFQNA-37" edge="1">
          <mxGeometry width="50" height="50" relative="1" as="geometry">
            <mxPoint x="380" y="121" as="sourcePoint" />
            <mxPoint x="436" y="50" as="targetPoint" />
          </mxGeometry>
        </mxCell>
        <mxCell id="uW9IMe0hNeK73aVWFQNA-43" value="" style="endArrow=none;html=1;rounded=0;exitX=0.75;exitY=0;exitDx=0;exitDy=0;" parent="1" source="uW9IMe0hNeK73aVWFQNA-3" target="uW9IMe0hNeK73aVWFQNA-38" edge="1">
          <mxGeometry width="50" height="50" relative="1" as="geometry">
            <mxPoint x="440" y="121" as="sourcePoint" />
            <mxPoint x="496" y="50" as="targetPoint" />
          </mxGeometry>
        </mxCell>
        <mxCell id="uW9IMe0hNeK73aVWFQNA-44" value="&lt;b&gt;ID&lt;/b&gt;" style="ellipse;whiteSpace=wrap;html=1;" parent="1" vertex="1">
          <mxGeometry x="554" y="48" width="48" height="56" as="geometry" />
        </mxCell>
        <mxCell id="uW9IMe0hNeK73aVWFQNA-45" value="&lt;b&gt;Name&lt;/b&gt;" style="ellipse;whiteSpace=wrap;html=1;" parent="1" vertex="1">
          <mxGeometry x="609" y="18" width="43" height="51" as="geometry" />
        </mxCell>
        <mxCell id="uW9IMe0hNeK73aVWFQNA-46" value="&lt;b&gt;Mobile&lt;/b&gt;" style="ellipse;whiteSpace=wrap;html=1;" parent="1" vertex="1">
          <mxGeometry x="660" y="3" width="49" height="40" as="geometry" />
        </mxCell>
        <mxCell id="uW9IMe0hNeK73aVWFQNA-47" value="&lt;b&gt;experience&lt;/b&gt;" style="ellipse;whiteSpace=wrap;html=1;" parent="1" vertex="1">
          <mxGeometry x="717" y="-6" width="69" height="40" as="geometry" />
        </mxCell>
        <mxCell id="uW9IMe0hNeK73aVWFQNA-48" value="&lt;b&gt;password&lt;/b&gt;" style="ellipse;whiteSpace=wrap;html=1;" parent="1" vertex="1">
          <mxGeometry x="800" y="-6" width="60" height="40" as="geometry" />
        </mxCell>
        <mxCell id="uW9IMe0hNeK73aVWFQNA-49" value="&lt;b&gt;Resume&lt;/b&gt;" style="ellipse;whiteSpace=wrap;html=1;" parent="1" vertex="1">
          <mxGeometry x="863" y="10" width="60" height="40" as="geometry" />
        </mxCell>
        <mxCell id="uW9IMe0hNeK73aVWFQNA-50" value="" style="endArrow=none;html=1;rounded=0;entryX=0.017;entryY=0.7;entryDx=0;entryDy=0;entryPerimeter=0;" parent="1" target="uW9IMe0hNeK73aVWFQNA-49" edge="1">
          <mxGeometry width="50" height="50" relative="1" as="geometry">
            <mxPoint x="790" y="160" as="sourcePoint" />
            <mxPoint x="890" y="80" as="targetPoint" />
          </mxGeometry>
        </mxCell>
        <mxCell id="uW9IMe0hNeK73aVWFQNA-51" value="" style="endArrow=none;html=1;rounded=0;exitX=0.85;exitY=0;exitDx=0;exitDy=0;exitPerimeter=0;" parent="1" source="uW9IMe0hNeK73aVWFQNA-4" target="uW9IMe0hNeK73aVWFQNA-48" edge="1">
          <mxGeometry width="50" height="50" relative="1" as="geometry">
            <mxPoint x="770" y="155" as="sourcePoint" />
            <mxPoint x="842" y="45" as="targetPoint" />
          </mxGeometry>
        </mxCell>
        <mxCell id="uW9IMe0hNeK73aVWFQNA-52" value="" style="endArrow=none;html=1;rounded=0;exitX=0.664;exitY=0.05;exitDx=0;exitDy=0;exitPerimeter=0;entryX=0.5;entryY=1;entryDx=0;entryDy=0;" parent="1" source="uW9IMe0hNeK73aVWFQNA-4" target="uW9IMe0hNeK73aVWFQNA-47" edge="1">
          <mxGeometry width="50" height="50" relative="1" as="geometry">
            <mxPoint x="740" y="155" as="sourcePoint" />
            <mxPoint x="781" y="45" as="targetPoint" />
          </mxGeometry>
        </mxCell>
        <mxCell id="uW9IMe0hNeK73aVWFQNA-53" value="" style="endArrow=none;html=1;rounded=0;exitX=0.5;exitY=0;exitDx=0;exitDy=0;entryX=0.5;entryY=1;entryDx=0;entryDy=0;" parent="1" source="uW9IMe0hNeK73aVWFQNA-4" target="uW9IMe0hNeK73aVWFQNA-46" edge="1">
          <mxGeometry width="50" height="50" relative="1" as="geometry">
            <mxPoint x="710" y="150" as="sourcePoint" />
            <mxPoint x="721" y="45" as="targetPoint" />
          </mxGeometry>
        </mxCell>
        <mxCell id="uW9IMe0hNeK73aVWFQNA-54" value="" style="endArrow=none;html=1;rounded=0;exitX=0.207;exitY=-0.05;exitDx=0;exitDy=0;exitPerimeter=0;entryX=0.5;entryY=1;entryDx=0;entryDy=0;" parent="1" source="uW9IMe0hNeK73aVWFQNA-4" target="uW9IMe0hNeK73aVWFQNA-45" edge="1">
          <mxGeometry width="50" height="50" relative="1" as="geometry">
            <mxPoint x="620" y="165" as="sourcePoint" />
            <mxPoint x="671" y="55" as="targetPoint" />
          </mxGeometry>
        </mxCell>
        <mxCell id="uW9IMe0hNeK73aVWFQNA-55" value="" style="endArrow=none;html=1;rounded=0;exitX=0;exitY=0;exitDx=0;exitDy=0;entryX=1;entryY=1;entryDx=0;entryDy=0;" parent="1" source="uW9IMe0hNeK73aVWFQNA-4" target="uW9IMe0hNeK73aVWFQNA-44" edge="1">
          <mxGeometry width="50" height="50" relative="1" as="geometry">
            <mxPoint x="570" y="195" as="sourcePoint" />
            <mxPoint x="621" y="85" as="targetPoint" />
          </mxGeometry>
        </mxCell>
        <mxCell id="uW9IMe0hNeK73aVWFQNA-56" value="&lt;b&gt;ID&lt;/b&gt;" style="ellipse;whiteSpace=wrap;html=1;" parent="1" vertex="1">
          <mxGeometry x="235" y="528" width="40" height="40" as="geometry" />
        </mxCell>
        <mxCell id="uW9IMe0hNeK73aVWFQNA-57" value="&lt;b&gt;Company_id&lt;/b&gt;" style="ellipse;whiteSpace=wrap;html=1;" parent="1" vertex="1">
          <mxGeometry x="230.5" y="581" width="75" height="40" as="geometry" />
        </mxCell>
        <mxCell id="uW9IMe0hNeK73aVWFQNA-58" value="&lt;b&gt;Location&lt;/b&gt;" style="ellipse;whiteSpace=wrap;html=1;" parent="1" vertex="1">
          <mxGeometry x="252" y="626" width="70" height="50" as="geometry" />
        </mxCell>
        <mxCell id="uW9IMe0hNeK73aVWFQNA-59" value="&lt;b&gt;Skills&lt;/b&gt;" style="ellipse;whiteSpace=wrap;html=1;" parent="1" vertex="1">
          <mxGeometry x="321" y="659" width="60" height="40" as="geometry" />
        </mxCell>
        <mxCell id="uW9IMe0hNeK73aVWFQNA-60" value="&lt;b&gt;Salary&lt;/b&gt;" style="ellipse;whiteSpace=wrap;html=1;" parent="1" vertex="1">
          <mxGeometry x="400" y="676" width="60" height="40" as="geometry" />
        </mxCell>
        <mxCell id="uW9IMe0hNeK73aVWFQNA-67" value="&lt;b&gt;Role&lt;/b&gt;" style="ellipse;whiteSpace=wrap;html=1;" parent="1" vertex="1">
          <mxGeometry x="460" y="648" width="60" height="40" as="geometry" />
        </mxCell>
        <mxCell id="uW9IMe0hNeK73aVWFQNA-68" value="&lt;b&gt;Posts&lt;/b&gt;" style="ellipse;whiteSpace=wrap;html=1;" parent="1" vertex="1">
          <mxGeometry x="498" y="605" width="60" height="40" as="geometry" />
        </mxCell>
        <mxCell id="uW9IMe0hNeK73aVWFQNA-69" value="&lt;b&gt;Industry&lt;/b&gt;" style="ellipse;whiteSpace=wrap;html=1;" parent="1" vertex="1">
          <mxGeometry x="531" y="555" width="60" height="50" as="geometry" />
        </mxCell>
        <mxCell id="uW9IMe0hNeK73aVWFQNA-72" value="" style="endArrow=none;html=1;rounded=0;entryX=0;entryY=1;entryDx=0;entryDy=0;exitX=1;exitY=0.5;exitDx=0;exitDy=0;" parent="1" source="uW9IMe0hNeK73aVWFQNA-56" target="uW9IMe0hNeK73aVWFQNA-7" edge="1">
          <mxGeometry width="50" height="50" relative="1" as="geometry">
            <mxPoint x="266" y="582" as="sourcePoint" />
            <mxPoint x="266" y="512" as="targetPoint" />
          </mxGeometry>
        </mxCell>
        <mxCell id="uW9IMe0hNeK73aVWFQNA-73" value="" style="endArrow=none;html=1;rounded=0;entryX=0;entryY=1;entryDx=0;entryDy=0;exitX=1;exitY=0;exitDx=0;exitDy=0;" parent="1" source="uW9IMe0hNeK73aVWFQNA-57" target="uW9IMe0hNeK73aVWFQNA-7" edge="1">
          <mxGeometry width="50" height="50" relative="1" as="geometry">
            <mxPoint x="316" y="617" as="sourcePoint" />
            <mxPoint x="367" y="572" as="targetPoint" />
          </mxGeometry>
        </mxCell>
        <mxCell id="uW9IMe0hNeK73aVWFQNA-74" value="" style="endArrow=none;html=1;rounded=0;entryX=0.25;entryY=1;entryDx=0;entryDy=0;exitX=1;exitY=0;exitDx=0;exitDy=0;" parent="1" source="uW9IMe0hNeK73aVWFQNA-58" target="uW9IMe0hNeK73aVWFQNA-7" edge="1">
          <mxGeometry width="50" height="50" relative="1" as="geometry">
            <mxPoint x="322" y="657" as="sourcePoint" />
            <mxPoint x="322" y="587" as="targetPoint" />
          </mxGeometry>
        </mxCell>
        <mxCell id="uW9IMe0hNeK73aVWFQNA-75" value="" style="endArrow=none;html=1;rounded=0;entryX=0.36;entryY=1.075;entryDx=0;entryDy=0;entryPerimeter=0;exitX=0.5;exitY=0;exitDx=0;exitDy=0;" parent="1" source="uW9IMe0hNeK73aVWFQNA-59" target="uW9IMe0hNeK73aVWFQNA-7" edge="1">
          <mxGeometry width="50" height="50" relative="1" as="geometry">
            <mxPoint x="357" y="692" as="sourcePoint" />
            <mxPoint x="357" y="622" as="targetPoint" />
          </mxGeometry>
        </mxCell>
        <mxCell id="uW9IMe0hNeK73aVWFQNA-76" value="" style="endArrow=none;html=1;rounded=0;entryX=0.5;entryY=1;entryDx=0;entryDy=0;exitX=0.5;exitY=0;exitDx=0;exitDy=0;" parent="1" source="uW9IMe0hNeK73aVWFQNA-60" target="uW9IMe0hNeK73aVWFQNA-7" edge="1">
          <mxGeometry width="50" height="50" relative="1" as="geometry">
            <mxPoint x="421" y="696" as="sourcePoint" />
            <mxPoint x="416.5" y="622" as="targetPoint" />
          </mxGeometry>
        </mxCell>
        <mxCell id="uW9IMe0hNeK73aVWFQNA-77" value="" style="endArrow=none;html=1;rounded=0;entryX=0.63;entryY=1.025;entryDx=0;entryDy=0;entryPerimeter=0;exitX=0;exitY=0;exitDx=0;exitDy=0;" parent="1" source="uW9IMe0hNeK73aVWFQNA-67" target="uW9IMe0hNeK73aVWFQNA-7" edge="1">
          <mxGeometry width="50" height="50" relative="1" as="geometry">
            <mxPoint x="487" y="692" as="sourcePoint" />
            <mxPoint x="437" y="572" as="targetPoint" />
          </mxGeometry>
        </mxCell>
        <mxCell id="uW9IMe0hNeK73aVWFQNA-78" value="" style="endArrow=none;html=1;rounded=0;entryX=0.86;entryY=1.05;entryDx=0;entryDy=0;entryPerimeter=0;exitX=0;exitY=0;exitDx=0;exitDy=0;" parent="1" source="uW9IMe0hNeK73aVWFQNA-68" target="uW9IMe0hNeK73aVWFQNA-7" edge="1">
          <mxGeometry width="50" height="50" relative="1" as="geometry">
            <mxPoint x="537" y="662" as="sourcePoint" />
            <mxPoint x="537" y="592" as="targetPoint" />
          </mxGeometry>
        </mxCell>
        <mxCell id="uW9IMe0hNeK73aVWFQNA-79" value="" style="endArrow=none;html=1;rounded=0;entryX=1;entryY=1;entryDx=0;entryDy=0;exitX=0;exitY=0;exitDx=0;exitDy=0;" parent="1" source="uW9IMe0hNeK73aVWFQNA-69" target="uW9IMe0hNeK73aVWFQNA-7" edge="1">
          <mxGeometry width="50" height="50" relative="1" as="geometry">
            <mxPoint x="577" y="632" as="sourcePoint" />
            <mxPoint x="577" y="562" as="targetPoint" />
          </mxGeometry>
        </mxCell>
        <mxCell id="uW9IMe0hNeK73aVWFQNA-22" value="&lt;span style=&quot;font-size: 14px;&quot;&gt;&lt;b&gt;Manage&lt;/b&gt;&lt;/span&gt;" style="rhombus;whiteSpace=wrap;html=1;" parent="1" vertex="1">
          <mxGeometry x="384" y="321" width="72" height="84.5" as="geometry" />
        </mxCell>
        <mxCell id="uW9IMe0hNeK73aVWFQNA-90" value="" style="endArrow=none;html=1;rounded=0;exitX=0.5;exitY=0;exitDx=0;exitDy=0;" parent="1" source="uW9IMe0hNeK73aVWFQNA-7" target="uW9IMe0hNeK73aVWFQNA-22" edge="1">
          <mxGeometry width="50" height="50" relative="1" as="geometry">
            <mxPoint x="423" y="580.5" as="sourcePoint" />
            <mxPoint x="420" y="477" as="targetPoint" />
          </mxGeometry>
        </mxCell>
        <mxCell id="uW9IMe0hNeK73aVWFQNA-121" value="&lt;b&gt;Status&lt;/b&gt;" style="ellipse;whiteSpace=wrap;html=1;" parent="1" vertex="1">
          <mxGeometry x="192" y="20" width="60" height="40" as="geometry" />
        </mxCell>
        <mxCell id="uW9IMe0hNeK73aVWFQNA-123" value="" style="endArrow=none;html=1;rounded=0;exitX=1;exitY=0;exitDx=0;exitDy=0;" parent="1" source="uW9IMe0hNeK73aVWFQNA-1" target="uW9IMe0hNeK73aVWFQNA-121" edge="1">
          <mxGeometry width="50" height="50" relative="1" as="geometry">
            <mxPoint x="182" y="157" as="sourcePoint" />
            <mxPoint x="169" y="41" as="targetPoint" />
          </mxGeometry>
        </mxCell>
        <mxCell id="uW9IMe0hNeK73aVWFQNA-124" value="&lt;b&gt;Address&lt;/b&gt;" style="ellipse;whiteSpace=wrap;html=1;" parent="1" vertex="1">
          <mxGeometry x="882" y="60" width="60" height="40" as="geometry" />
        </mxCell>
        <mxCell id="uW9IMe0hNeK73aVWFQNA-125" value="" style="endArrow=none;html=1;rounded=0;entryX=0.017;entryY=0.7;entryDx=0;entryDy=0;entryPerimeter=0;exitX=1;exitY=0.5;exitDx=0;exitDy=0;" parent="1" source="uW9IMe0hNeK73aVWFQNA-4" edge="1">
          <mxGeometry width="50" height="50" relative="1" as="geometry">
            <mxPoint x="808" y="207" as="sourcePoint" />
            <mxPoint x="882" y="85" as="targetPoint" />
          </mxGeometry>
        </mxCell>
        <mxCell id="uW9IMe0hNeK73aVWFQNA-126" value="&lt;b&gt;Notification&lt;/b&gt;" style="ellipse;whiteSpace=wrap;html=1;" parent="1" vertex="1">
          <mxGeometry x="891" y="120" width="80" height="40" as="geometry" />
        </mxCell>
        <mxCell id="uW9IMe0hNeK73aVWFQNA-127" value="" style="endArrow=none;html=1;rounded=0;entryX=0;entryY=0.5;entryDx=0;entryDy=0;exitX=1;exitY=0.75;exitDx=0;exitDy=0;" parent="1" source="uW9IMe0hNeK73aVWFQNA-4" target="uW9IMe0hNeK73aVWFQNA-126" edge="1">
          <mxGeometry width="50" height="50" relative="1" as="geometry">
            <mxPoint x="800" y="240" as="sourcePoint" />
            <mxPoint x="891" y="145" as="targetPoint" />
          </mxGeometry>
        </mxCell>
      </root>
    </mxGraphModel>
  </diagram>
</mxfile>
